<svg xmlns="http://www.w3.org/2000/svg" width="226.94" height="21.78" viewBox="0 0 226.94 21.78">
  <g id="Group_1" data-name="Group 1" transform="translate(-466.14 -62.46)">
    <path id="OBRANA" d="M11.85-21.54A10.792,10.792,0,0,1,17.3-20.145a10.163,10.163,0,0,1,3.855,3.87,11.1,11.1,0,0,1,1.41,5.6,11.091,11.091,0,0,1-1.425,5.61,10.241,10.241,0,0,1-3.87,3.885A10.733,10.733,0,0,1,11.85.21a10.733,10.733,0,0,1-5.415-1.4A10.241,10.241,0,0,1,2.565-5.07,11.091,11.091,0,0,1,1.14-10.68a11.009,11.009,0,0,1,1.425-5.6,10.271,10.271,0,0,1,3.87-3.87A10.733,10.733,0,0,1,11.85-21.54Zm0,4.77a5.143,5.143,0,0,0-4.005,1.635A6.377,6.377,0,0,0,6.36-10.68,6.389,6.389,0,0,0,7.845-6.24,5.12,5.12,0,0,0,11.85-4.59a5.131,5.131,0,0,0,3.99-1.65,6.349,6.349,0,0,0,1.5-4.44,6.389,6.389,0,0,0-1.485-4.44A5.12,5.12,0,0,0,11.85-16.77Zm26.31,5.85a5.311,5.311,0,0,1,3.045,1.86A5.092,5.092,0,0,1,42.33-5.79a5.269,5.269,0,0,1-1.815,4.26A7.864,7.864,0,0,1,35.31,0H25.44V-21.21h9.63a7.863,7.863,0,0,1,5.01,1.41,4.841,4.841,0,0,1,1.77,4.02,4.953,4.953,0,0,1-1.02,3.2A4.7,4.7,0,0,1,38.16-10.92Zm-7.59-1.62h3.36q2.67,0,2.67-2.28T33.87-17.1h-3.3Zm3.66,8.37q2.85,0,2.85-2.34A2.229,2.229,0,0,0,36.33-8.3,3.171,3.171,0,0,0,34.2-8.94H30.57v4.77ZM55.92,0,51.33-8.01H50.16V0H45.03V-21.21h8.76a9.457,9.457,0,0,1,4.26.87,6.008,6.008,0,0,1,2.61,2.385,6.832,6.832,0,0,1,.87,3.465,6.159,6.159,0,0,1-1.275,3.93,6.518,6.518,0,0,1-3.7,2.22L61.59,0ZM50.16-11.52h3.18a3.2,3.2,0,0,0,2.25-.675,2.605,2.605,0,0,0,.72-1.995,2.645,2.645,0,0,0-.735-1.98,3.08,3.08,0,0,0-2.235-.72H50.16ZM77.25-3.87H69.3L67.98,0h-5.4l7.77-21.06h5.91L84.03,0H78.57Zm-1.32-3.9-2.64-7.8-2.67,7.8ZM104.85,0H99.72L91.14-13.02V0H86.01V-21.21h5.13L99.72-8.07V-21.21h5.13Zm16.68-3.87h-7.95L112.26,0h-5.4l7.77-21.06h5.91L128.31,0h-5.46Zm-1.32-3.9-2.64-7.8-2.67,7.8Z" transform="translate(465 84)"/>
    <path id="GROUP" d="M11.88-21.3a9.782,9.782,0,0,1,5.85,1.74,9.9,9.9,0,0,1,3.54,4.71h-.6a8.788,8.788,0,0,0-3.285-4.275A9.324,9.324,0,0,0,11.88-20.76a9.438,9.438,0,0,0-4.8,1.245,8.82,8.82,0,0,0-3.4,3.57A11.3,11.3,0,0,0,2.43-10.53,11.3,11.3,0,0,0,3.675-5.115a8.82,8.82,0,0,0,3.4,3.57A9.438,9.438,0,0,0,11.88-.3,9.513,9.513,0,0,0,16.6-1.5,8.939,8.939,0,0,0,20.04-4.965a10.908,10.908,0,0,0,1.35-5.265H11.43v-.54H21.96v.24a11.834,11.834,0,0,1-1.29,5.58,9.456,9.456,0,0,1-3.585,3.825A9.986,9.986,0,0,1,11.88.24,9.986,9.986,0,0,1,6.675-1.125,9.456,9.456,0,0,1,3.09-4.95,11.834,11.834,0,0,1,1.8-10.53a11.834,11.834,0,0,1,1.29-5.58,9.456,9.456,0,0,1,3.585-3.825A9.986,9.986,0,0,1,11.88-21.3ZM37.86,0,31.41-9.21h-4.5V0h-.6V-21.12h5.34q3.45,0,5.1,1.59a5.8,5.8,0,0,1,1.65,4.38,5.625,5.625,0,0,1-1.605,4.32A7.059,7.059,0,0,1,32.1-9.21L38.61,0ZM26.91-9.84h4.74q6.15,0,6.15-5.31a5.279,5.279,0,0,0-1.44-3.975q-1.44-1.4-4.71-1.4H26.91ZM51.69-21.3A9.986,9.986,0,0,1,56.9-19.935,9.456,9.456,0,0,1,60.48-16.11a11.834,11.834,0,0,1,1.29,5.58,11.834,11.834,0,0,1-1.29,5.58A9.456,9.456,0,0,1,56.9-1.125,9.986,9.986,0,0,1,51.69.24a9.986,9.986,0,0,1-5.205-1.365A9.456,9.456,0,0,1,42.9-4.95a11.833,11.833,0,0,1-1.29-5.58,11.833,11.833,0,0,1,1.29-5.58,9.456,9.456,0,0,1,3.585-3.825A9.986,9.986,0,0,1,51.69-21.3Zm0,.54a9.438,9.438,0,0,0-4.8,1.245,8.82,8.82,0,0,0-3.4,3.57A11.3,11.3,0,0,0,42.24-10.53a11.3,11.3,0,0,0,1.245,5.415,8.82,8.82,0,0,0,3.4,3.57A9.438,9.438,0,0,0,51.69-.3a9.438,9.438,0,0,0,4.8-1.245,8.82,8.82,0,0,0,3.4-3.57A11.3,11.3,0,0,0,61.14-10.53,11.3,11.3,0,0,0,59.9-15.945a8.82,8.82,0,0,0-3.4-3.57A9.438,9.438,0,0,0,51.69-20.76Zm14.88-.36V-8.01q0,4.02,1.755,5.85A6.279,6.279,0,0,0,73.08-.33a6.056,6.056,0,0,0,4.65-1.83q1.71-1.83,1.71-5.85V-21.12h.6V-8.01q0,4.2-1.845,6.21A6.6,6.6,0,0,1,73.08.21a6.812,6.812,0,0,1-5.19-2.025Q65.97-3.84,65.97-8.01V-21.12ZM85.59-9.51V0h-.6V-21.12h5.34q3.48,0,5.115,1.53A5.588,5.588,0,0,1,97.08-15.3a5.367,5.367,0,0,1-1.71,4.35,7.65,7.65,0,0,1-5.04,1.44Zm4.74-.63q3.24,0,4.695-1.35A4.94,4.94,0,0,0,96.48-15.3a5.029,5.029,0,0,0-1.44-3.9q-1.44-1.32-4.71-1.32H85.59v10.38Z" transform="translate(596 84)"/>
  </g>
</svg>
